<svg xmlns="http://www.w3.org/2000/svg">
	<defs>
		<style>
			:root svg:not(:target) {
				display: none;
			}
		</style>
	</defs>


	<svg id="account" viewBox="0 0 24 24" fill="none">
		<path d="M12 12c1.326 0 2.598-.527 3.536-1.464.938-.938 1.464-2.209 1.464-3.536 0-1.326-.527-2.598-1.464-3.536-.938-.938-2.209-1.464-3.536-1.464-1.326 0-2.598.527-3.536 1.464-.938.938-1.464 2.209-1.464 3.536 0 1.326.527 2.598 1.464 3.536.938.938 2.209 1.464 3.536 1.464z" stroke="currentColor" stroke-width="1.5" stroke-linecap="round" stroke-linejoin="round"/><path d="M8 15.5c-4.405 2.202-6 4.5-3.605 6.22 2.395 1.72 12.892 1.72 15.248 0s-.038-4.417-3.644-6.22c-2-1-6-1-8 0z" stroke="#8EB201" stroke-width="1.5" stroke-linecap="round" stroke-linejoin="round"/>
	</svg>
	<svg id="symbol" viewBox="0 0 24 24" fill="none">
		<path d="M12 22c5.523 0 10-4.477 10-10s-4.477-10-10-10-10 4.477-10 10 4.477 10 10 10z" stroke="currentColor" stroke-width="1.5" stroke-miterlimit="10" stroke-linecap="round" stroke-linejoin="round"/><path d="M14.05 13.825c-.306-.75-1.517-.995-2.193-1.183-1.179-.331-2.611-.776-3.263-1.898-.368-.643-.35-1.503.007-2.146.564-.987 1.859-1.598 3.534-1.598 1.255 0 2.63.391 3.373 1.477.313.45.469.947.469 1.491-.198.628-1.501.628-1.826 0 0-1.127-1.007-1.651-2.039-1.651-.87 0-1.447.258-1.731.668-.942 1.363 1.153 2.041 2.09 2.286 1.563.424 3.527 1.181 3.527 3.075 0 1.955-2.152 2.654-3.806 2.654-1.836 0-4.194-.917-4.194-3.075.079-.628 1.828-.528 1.841 0 0 1.275 1.218 1.765 2.354 1.765 1.009 0 2.422-.573 1.855-1.865z" fill="#8EB201"/><path d="M12 5.946v12.109" stroke="#8EB201" stroke-width="1.5" stroke-linecap="round"/>
	</svg>
	<svg id="search" viewBox="0 0 24 24" fill="none">
		<path d="M9.926 15.593c3.13 0 5.667-2.537 5.667-5.667s-2.537-5.667-5.667-5.667-5.667 2.537-5.667 5.667 2.537 5.667 5.667 5.667z" stroke="currentColor" stroke-width="2" stroke-linecap="round" stroke-linejoin="round"/><path d="M18.583 18.583l-2.676-2.676" stroke="#8EB201" stroke-width="2" stroke-linecap="round" stroke-linejoin="round"/>
	</svg>
	<svg id="search-small" viewBox="0 0 16 16" fill="none">
		<path d="M13.5 13.5l-2.5-2.5" stroke="currentColor" stroke-width="1.25" stroke-linecap="round" stroke-linejoin="round"/><path d="M7.5 11.5c2.209 0 4-1.791 4-4s-1.791-4-4-4-4 1.791-4 4 1.791 4 4 4z" stroke="currentColor" stroke-width="1.2" stroke-linecap="round" stroke-linejoin="round"/>
	</svg>
	<svg id="section-accounts-and-symbols" viewBox="0 0 24 24" fill="none">
		<path d="M17 21h-10c-4 0-5-1-5-5v-8c0-4 1-5 5-5h10c4 0 5 1 5 5v8c0 4-1 5-5 5z" stroke="currentColor" stroke-width="1.5" stroke-linecap="round" stroke-linejoin="round"/><path d="M14 8h5M15 12h4M17 16h2" stroke="#8EB201" stroke-width="1.5" stroke-linecap="round" stroke-linejoin="round"/><path d="M8.5 11.29c1 0 1.81-.81 1.81-1.81s-.81-1.81-1.81-1.81-1.81.81-1.81 1.81.81 1.81 1.81 1.81zM12 16.33c-.14-1.45-1.29-2.59-2.74-2.72-.5-.05-1.01-.05-1.52 0-1.45.14-2.6 1.27-2.74 2.72" stroke-width="1.5" stroke-linecap="round" stroke-linejoin="round" stroke="#8EB201"/>
	</svg>
	<svg id="dashboard" viewBox="0 0 24 24" fill="none">
		<path d="M9 22h6c5 0 7-2 7-7v-6c0-5-2-7-7-7h-6c-5 0-7 2-7 7v6c0 5 2 7 7 7z" stroke="currentColor" stroke-width="1.5" stroke-linecap="round" stroke-linejoin="round"/><path d="M6 15l3.058-3.723c.437-.53 1.246-.627 1.812-.217l2.351 1.735c.565.41 1.375.313 1.812-.205l2.968-3.59" stroke="#8EB201" stroke-width="1.5" stroke-linecap="round" stroke-linejoin="round"/>
	</svg>

</svg>
